<svg id="图层_1" data-name="图层 1" xmlns="http://www.w3.org/2000/svg" viewBox="0 0 155.91 155.91"><defs><style>.cls-1{fill:#3e3a39;}.cls-2{fill:#18499d;fill-rule:evenodd;}.cls-3,.cls-4{fill:none;stroke:#3e3a39;stroke-linecap:round;stroke-width:5px;}.cls-3{stroke-linejoin:round;}.cls-4{stroke-miterlimit:10;}</style></defs><title>TDengine 四个工具</title><path class="cls-1" d="M31,80.35h3.57v2.92H31v9a1.22,1.22,0,0,0,.25.87,1,1,0,0,0,.81.28h2.1v2.92H31.43a3.88,3.88,0,0,1-3.07-1.12,4.19,4.19,0,0,1-.93-3v-9H24.54V80.35h2.89V76.63L31,75.18Z"/><path class="cls-1" d="M50.46,81.69A6.16,6.16,0,0,1,52,86.15V96.39H48.66V94.28a6.37,6.37,0,0,1-2.29,1.83,8.77,8.77,0,0,1-3.63.71,5.78,5.78,0,0,1-3.94-1.27,4.18,4.18,0,0,1-1.48-3.29,4.69,4.69,0,0,1,2.1-4.15,9.81,9.81,0,0,1,5.49-1.49l3.51-.09V85.9c0-2.1-1.15-3.13-3.45-3.13a4.35,4.35,0,0,0-2.35.53,2.8,2.8,0,0,0-1.34,1.86l-3.5-.28A5.39,5.39,0,0,1,40.38,81a9,9,0,0,1,4.84-1.09C47.58,79.92,49.35,80.51,50.46,81.69Zm-5.3,7.47c-2.82.06-4.22,1.06-4.22,3a1.64,1.64,0,0,0,.72,1.39,3,3,0,0,0,1.89.59A5.18,5.18,0,0,0,47,92.94a3.91,3.91,0,0,0,1.43-3.07v-.8Z"/><path class="cls-1" d="M69.74,82.31a9.42,9.42,0,0,1,0,12.09A8.38,8.38,0,0,1,58,94.4a9.45,9.45,0,0,1,0-12.09,7.5,7.5,0,0,1,5.86-2.39A7.57,7.57,0,0,1,69.74,82.31Zm-9.27,2.23a6.72,6.72,0,0,0-1,3.85,6.59,6.59,0,0,0,1,3.81,4.21,4.21,0,0,0,6.82,0,7.45,7.45,0,0,0,0-7.66,4.23,4.23,0,0,0-6.82,0Z"/><path class="cls-1" d="M88.78,85H85.34a2.94,2.94,0,0,0-1.12-1.71,4.56,4.56,0,0,0-2.42-.49,4.25,4.25,0,0,0-2.11.4,1.35,1.35,0,0,0-.8,1.33c0,.5.4,1,1.27,1.33a26.15,26.15,0,0,0,3.19.93,13,13,0,0,1,4,1.52A3.85,3.85,0,0,1,89.3,91.7q0,5.11-7.22,5.12c-4.47,0-6.85-1.89-7.19-5.64h3.44a3.54,3.54,0,0,0,1.08,2.17,4.49,4.49,0,0,0,2.55.59c2.48,0,3.72-.69,3.72-2,0-.74-.47-1.33-1.4-1.77a19.92,19.92,0,0,0-3.16-.9,13.4,13.4,0,0,1-4-1.39,3.65,3.65,0,0,1-1.86-3.26,3.86,3.86,0,0,1,1.83-3.44,8,8,0,0,1,4.77-1.27C86.08,79.92,88.41,81.6,88.78,85Z"/><path class="cls-1" d="M108.21,87.08v2.61L92.56,96.45v-3.2L104,88.39,92.56,83.52v-3.2Z"/><path class="cls-2" d="M124.71,99a3.53,3.53,0,1,1-3.52,3.53h0A3.56,3.56,0,0,1,124.71,99Zm-23.29,16.81a3.53,3.53,0,1,1-3.52,3.53A3.6,3.6,0,0,1,101.42,115.82Zm9.13,27.45a3.53,3.53,0,1,1-3.53,3.52A3.51,3.51,0,0,1,110.55,143.27Zm28.32,0a3.53,3.53,0,1,1-3.52,3.52A3.51,3.51,0,0,1,138.87,143.27Zm-9-23.42H119.55l-3.15,9.76,8.31,6,8.31-6-3.15-9.82Zm-10-.82L123.45,108a3.83,3.83,0,0,1-.82-.25L119,119H107v.82h11.65l-3,9.25-9.45-6.86a4.28,4.28,0,0,1-.5.69l8.06,5.86h0l1.63,1.19-.56,1.58h0l-3.15,9.75a4.32,4.32,0,0,1,.82.26l3.59-11,7.87,5.73L114.7,143a5.43,5.43,0,0,1,.51.63l9.5-6.92,9.51,6.92a2.36,2.36,0,0,1,.5-.63l-9.32-6.79,7.87-5.73.38,1.07h0l3.27,10a3.28,3.28,0,0,1,.82-.26L134.09,130l1.64-1.19,8-5.86a5.89,5.89,0,0,1-.5-.69l-7.81,5.67-.25.19-1.45,1-3-9.25h11.65V119h-12l-3.65-11.33a3.41,3.41,0,0,1-.82.25L129.49,119Zm-14-3.15,14.16-10.32a2.61,2.61,0,0,0,.51.63l-14.23,10.39c-.13-.26-.31-.44-.44-.7Zm2.52,25.69-5.48-16.87c.25-.07.5-.19.76-.25l5.54,16.86c-.32.07-.57.19-.82.26ZM133.33,147H116.15v-.88h17.18v.63c-.06.12-.06.19,0,.25Zm13.22-22.22-5.47,16.87a3.22,3.22,0,0,0-.76-.25l5.48-16.87A5.43,5.43,0,0,0,146.55,124.76Zm-17.12-19.2,14.16,10.32a2.88,2.88,0,0,0-.44.7l-14.28-10.33C129.05,106,129.24,105.81,129.43,105.56ZM148,115.82a3.53,3.53,0,1,1-3.52,3.53A3.53,3.53,0,0,1,148,115.82Z"/><path class="cls-3" d="M88.72,147H13.84a9.47,9.47,0,0,1-9.46-9.47V15.05a9.47,9.47,0,0,1,9.46-9.46H137.35a9.47,9.47,0,0,1,9.46,9.46V91.22"/><line class="cls-4" x1="4.38" y1="48.59" x2="146.81" y2="49.62"/><line class="cls-4" x1="27.16" y1="117.92" x2="49.96" y2="117.92"/><circle class="cls-4" cx="24.86" cy="28.74" r="5.97"/><circle class="cls-4" cx="70.08" cy="28.74" r="5.97"/><circle class="cls-4" cx="47.28" cy="28.74" r="5.97"/></svg>