<svg version="1.1" viewBox="0 0 595.28 169.89" xmlns="http://www.w3.org/2000/svg"><g fill="#0041ce"><path d="m211.57 62.37h-14.22v43.57h-9.86v-43.57h-14.15v-8.65h38.23v8.65z"/><path d="m235.95 53.72c15.2 0 25.36 4.36 25.36 26.11 0 20.17-10.16 26.11-25.36 26.11h-16.93v-52.22h16.93zm-0.45 43.72c10.08 0 15.65-3.84 15.65-17.61 0-14.52-5.79-17.76-15.65-17.76h-6.62v35.37h6.62z"/><path d="m306.01 87.43-26.64 1.73c0.22 6.85 3.54 9.93 11.66 9.93 4.89 0 10.46-1.43 13.24-2.79v7.68c-2.41 1.43-8.28 2.71-14.9 2.71-12.34 0-19.49-4.59-19.49-21.07s7.15-21.07 19.49-21.07c14.07 0 17.01 7.98 17.01 17.53 0 2.03-0.15 3.91-0.38 5.34zm-8.36-6.32c0-5.04-1.05-9.33-8.28-9.33s-9.78 3.69-10.01 10.69l18.29-1.36z"/><path d="m351.68 78.1v27.84h-9.41v-25.21c0-5.72-1.28-8.35-7-8.35-4.82 0-8.2 1.36-9.93 6.47v27.09h-9.41v-40.64h9.41v5.12c2.33-4.21 7.15-5.87 12.79-5.87 10.23 0 13.55 4.89 13.55 13.55z"/><path d="M399.69,65.3v37.55c0,11.21-5.79,18.14-21.6,18.14-3.61,0-7.98-.45-10.99-.98v-7.6c3.09.83,6.92,1.13,10.46,1.13,8.96,0,12.79-2.93,12.79-11.14v-2.86c-1.73,3.99-5.04,6.4-12.57,6.4-13.32,0-16.63-8.35-16.63-20.69,0-11.21,3.31-20.69,16.63-20.69,7.68,0,10.99,2.71,12.57,6.7v-5.94h9.33ZM390.73,85.25c0-8.2-1.81-13.47-10.53-13.47s-9.26,6.47-9.26,13.47c0,7.52,1.13,13.62,9.26,13.62,8.73,0,10.53-4.97,10.53-13.62Z"/><path d="M410.82,53.94c0-4.59,1.13-5.04,5.34-5.04s5.34.45,5.34,5.04-1.13,5.12-5.34,5.12-5.34-.6-5.34-5.12ZM411.42,65.3h9.41v40.64h-9.41v-40.64Z"/><path d="m468.39 78.1v27.84h-9.41v-25.21c0-5.72-1.28-8.35-7-8.35-4.82 0-8.2 1.36-9.93 6.47v27.09h-9.41v-40.64h9.41v5.12c2.33-4.21 7.15-5.87 12.79-5.87 10.23 0 13.55 4.89 13.55 13.55z"/><path d="m513.99 87.43-26.64 1.73c0.22 6.85 3.54 9.93 11.66 9.93 4.89 0 10.46-1.43 13.24-2.79v7.68c-2.41 1.43-8.28 2.71-14.9 2.71-12.34 0-19.49-4.59-19.49-21.07s7.15-21.07 19.49-21.07c14.07 0 17.01 7.98 17.01 17.53 0 2.03-0.15 3.91-0.38 5.34zm-8.36-6.32c0-5.04-1.05-9.33-8.28-9.33s-9.78 3.69-10.01 10.69l18.29-1.36z"/><path d="M118.75,48.73c2.73,0,4.95,2.22,4.95,4.95s-2.22,4.95-4.95,4.95-4.95-2.22-4.95-4.95,2.22-4.95,4.95-4.95h0ZM85.86,72.53c2.73,0,4.95,2.22,4.95,4.95s-2.22,4.95-4.95,4.95-4.95-2.22-4.95-4.95,2.22-4.95,4.95-4.95h0ZM98.74,111.26c2.73,0,4.95,2.22,4.95,4.95s-2.22,4.95-4.95,4.95-4.95-2.22-4.95-4.95,2.22-4.95,4.95-4.95h0ZM138.76,111.26c2.73,0,4.95,2.22,4.95,4.95s-2.22,4.95-4.95,4.95-4.95-2.22-4.95-4.95,2.22-4.95,4.95-4.95h0ZM126,78.23h-14.52s-4.49,13.8-4.49,13.8l11.75,8.54,11.73-8.52-4.48-13.82h0ZM111.86,77.05l5.09-15.66c-.38-.09-.76-.21-1.12-.35l-5.2,16.01h-16.86c0,.14.01.29.01.43,0,.25-.01.49-.03.74h16.5s-4.25,13.09-4.25,13.09l-13.38-9.71c-.21.34-.43.65-.68.95l11.37,8.26h0s2.31,1.68,2.31,1.68l-.72,2.21h0s-4.48,13.78-4.48,13.78c.39.08.76.2,1.13.34l5.07-15.6,11.13,8.09-13.17,9.57c.26.29.51.6.73.92l13.45-9.77,13.44,9.77c.22-.33.46-.63.73-.92l-13.17-9.57,11.12-8.08.48,1.48h.02s4.59,14.1,4.59,14.1c.36-.14.74-.25,1.13-.33l-5.2-15.98,2.29-1.66,11.4-8.27c-.25-.3-.48-.62-.69-.95l-11.07,8.04-.31.23-2.01,1.46-4.25-13.09h16.52c-.02-.24-.04-.49-.04-.75,0-.14,0-.28.01-.42h-16.87s-5.19-16.03-5.19-16.03c-.36.14-.73.26-1.12.35l5.08,15.66h-13.76ZM92.09,72.6l20.05-14.57c.22.33.46.64.72.93l-20.12,14.62c-.2-.34-.42-.67-.66-.97h0ZM95.71,108.9l-7.73-23.79c.38-.11.75-.24,1.1-.4l7.74,23.81c-.38.1-.76.22-1.11.37h0ZM130.85,116.52h-24.21c0-.11,0-.21,0-.32,0-.29-.02-.58-.05-.86h24.29c-.03.28-.05.57-.05.86,0,.11,0,.21,0,.32h0ZM149.52,85.11l-7.73,23.79c-.36-.15-.73-.27-1.11-.37l7.74-23.82c.36.16.72.29,1.11.4h0ZM125.36,58.03l20.05,14.57c-.24.31-.46.63-.66.97l-20.11-14.61c.26-.29.5-.6.72-.93h0ZM151.63,72.53c2.73,0,4.95,2.22,4.95,4.95s-2.22,4.95-4.95,4.95-4.95-2.22-4.95-4.95,2.22-4.95,4.95-4.95h0Z" fill-rule="evenodd"/></g></svg>
