<svg width="291" height="48" viewBox="0 0 291 48" fill="none" xmlns="http://www.w3.org/2000/svg">
<path d="M65 7.64395H60.5349V21H57.4372V7.64395H53V5H65V7.64395Z" fill="#0041CE"/>
<path d="M72.6 5C77.64 5 81 6.33333 81 13C81 19.1769 77.64 21 72.6 21H67V5H72.6ZM72.4526 18.3605C75.7832 18.3605 77.64 17.1905 77.64 12.9728C77.64 8.53742 75.7242 7.53061 72.4526 7.53061H70.2716V18.3605H72.4526Z" fill="#0041CE"/>
<path d="M94.9095 15.0485L86.8681 15.597C86.9217 17.7089 87.9403 18.6688 90.3795 18.6688C91.7466 18.6414 93.1136 18.3671 94.3734 17.8186V20.1772C93.6497 20.616 91.8806 21 89.8702 21C86.1444 21 84 19.5738 84 14.5C84 9.42616 86.1444 8 89.8702 8C94.1054 8 94.9899 10.4684 94.9899 13.403C95.0168 13.9515 94.9899 14.5 94.9095 15.0485ZM92.3899 13.1013C92.3899 11.538 92.0682 10.2215 89.897 10.2215C87.6186 10.2215 86.9485 11.346 86.8681 13.5127L92.3899 13.1013Z" fill="#0041CE"/>
<path d="M110 12.2403V20.9721H106.844V13.0773C106.844 11.2918 106.427 10.4549 104.491 10.4549C102.883 10.4549 101.752 10.8734 101.156 12.4914V21H98V8.22318H101.156V9.8412C101.931 8.53004 103.538 8 105.444 8C108.898 8 110 9.53433 110 12.2403Z" fill="#0041CE"/>
<path d="M125 8.22713V20.2082C125 23.7855 123.199 26 118.266 26C117.129 26 115.965 25.8864 114.829 25.6877V23.2744C115.91 23.53 116.991 23.6435 118.099 23.6435C120.898 23.6435 122.09 22.7066 122.09 20.0946V19.1861C121.536 20.4637 120.51 21.2303 118.182 21.2303C114.025 21.2303 113 18.5615 113 14.6151C113 11.0379 114.025 8 118.182 8C120.566 8 121.619 8.88013 122.09 10.1293V8.22713H125ZM122.201 14.5868C122.201 11.9748 121.647 10.2997 118.903 10.2997C116.298 10.2997 116.021 12.3722 116.021 14.5868C116.021 17 116.381 18.9306 118.903 18.9306C121.647 18.959 122.201 17.3691 122.201 14.5868Z" fill="#0041CE"/>
<path d="M128 4.59813C128 3.14019 128.433 3 130 3C131.567 3 132 3.14019 132 4.59813C132 6.05608 131.567 6.2243 130 6.2243C128.433 6.2243 128 6.02804 128 4.59813ZM128.233 8.18692H131.767V21H128.233V8.18692Z" fill="#0041CE"/>
<path d="M147 12.2403V20.9721H143.866V13.0773C143.866 11.2918 143.448 10.4549 141.507 10.4549C139.896 10.4549 138.761 10.8734 138.164 12.4914V21H135V8.22318H138.164V9.8412C138.94 8.53004 140.552 8 142.463 8C145.896 8 147 9.53433 147 12.2403Z" fill="#0041CE"/>
<path d="M160.898 15.0485L152.865 15.597C152.945 17.7089 153.936 18.6688 156.373 18.6688C157.738 18.6414 159.104 18.3671 160.363 17.8186V20.1772C159.64 20.616 157.872 21 155.864 21C152.142 21 150 19.5738 150 14.5C150 9.42616 152.142 8 155.864 8C160.095 8 160.978 10.4684 160.978 13.403C161.032 13.9515 160.978 14.5 160.898 15.0485ZM158.381 13.1013C158.381 11.538 158.06 10.2215 155.891 10.2215C153.615 10.2215 152.945 11.346 152.865 13.5127L158.381 13.1013Z" fill="#0041CE"/>
<path fill-rule="evenodd" clip-rule="evenodd" d="M25 3C26.6009 3 27.892 4.28834 27.892 5.88589C27.892 7.48344 26.6009 8.77178 25 8.77178C23.3991 8.77178 22.108 7.48344 22.108 5.88589C22.1596 4.28834 23.3991 3 25 3ZM5.89202 16.7595C7.49296 16.7595 8.78404 18.0479 8.78404 19.6454C8.78404 21.2429 7.49296 22.5313 5.89202 22.5313C4.29108 22.5313 3 21.2429 3 19.6454C3.05164 18.0479 4.34272 16.7595 5.89202 16.7595ZM13.3803 39.2282C14.9812 39.2282 16.2723 40.5166 16.2723 42.1141C16.2723 43.7117 14.9812 45 13.3803 45C11.7793 45 10.4883 43.7117 10.4883 42.1141C10.4883 40.5166 11.7793 39.2282 13.3803 39.2282ZM36.6197 39.2282C38.2207 39.2282 39.5117 40.5166 39.5117 42.1141C39.5117 43.7117 38.2207 45 36.6197 45C35.0188 45 33.7277 43.7117 33.7277 42.1141C33.7277 40.5166 35.0188 39.2282 36.6197 39.2282ZM29.2347 20.0577H20.7653L18.1831 28.0454L25 32.9926L31.8169 28.0969L29.2347 20.0577ZM21.0235 19.3877L23.9671 10.3178C23.7606 10.2663 23.5023 10.2147 23.2958 10.1117L20.3005 19.3877H10.4883C10.4883 19.4908 10.4883 19.5423 10.4883 19.6454C10.4883 19.8 10.4883 19.9546 10.4883 20.0577H20.0423L17.5634 27.6331L9.8169 22.016C9.71361 22.2221 9.55869 22.3767 9.40376 22.5828L16.0141 27.3755L17.3568 28.3546L16.892 29.6429L14.3099 37.6307C14.5164 37.6822 14.7746 37.7337 14.9812 37.8368L17.9249 28.8184L24.3803 33.508L16.7887 39.0221C16.9437 39.1767 17.0986 39.3828 17.2019 39.5374L25 33.8687L32.7981 39.5374C32.9014 39.3313 33.0563 39.1767 33.2113 39.0221L25.5681 33.4564L32.0235 28.7669L32.3333 29.6429L35.0188 37.8368C35.2253 37.7337 35.4319 37.6822 35.6901 37.6307L32.6948 28.3546L34.0376 27.3755L40.5962 22.5828C40.4413 22.4282 40.338 22.2221 40.1831 22.016L33.7793 26.654L33.5728 26.8086L32.385 27.6331L29.9061 20.0577H39.4601C39.4601 19.9031 39.4601 19.7485 39.4601 19.5939C39.4601 19.4908 39.4601 19.4393 39.4601 19.3362H29.6479L26.6526 10.0601C26.446 10.1632 26.2394 10.2147 25.9812 10.2663L28.9249 19.3362L21.0235 19.3877ZM9.55868 16.811L21.1784 8.35951C21.2817 8.56564 21.4366 8.72025 21.5915 8.87485L9.92019 17.3779C9.8169 17.1718 9.66197 17.0172 9.55868 16.811ZM11.6244 37.8368L7.13145 24.0258C7.33803 23.9742 7.5446 23.8712 7.75117 23.8196L12.2958 37.6307C12.0376 37.6822 11.831 37.7853 11.6244 37.8368ZM32.0751 42.2687H17.9765C17.9765 42.2172 17.9765 42.1656 17.9765 42.0626C17.9765 41.908 17.9765 41.7534 17.9765 41.5472H32.0751C32.0751 41.7018 32.0751 41.8564 32.0751 42.0626C32.0235 42.1656 32.0235 42.2172 32.0751 42.2687ZM42.9202 24.0773L38.4272 37.8883C38.2207 37.7853 38.0141 37.7337 37.8075 37.6822L42.3005 23.8712C42.4554 23.9227 42.662 24.0258 42.9202 24.0773ZM28.8732 8.35951L40.493 16.811C40.338 16.9656 40.2347 17.1718 40.1315 17.3779L28.4084 8.92638C28.5634 8.72024 28.7183 8.56564 28.8732 8.35951ZM44.108 16.7595C45.7089 16.7595 47 18.0479 47 19.6454C47 21.2429 45.7089 22.5313 44.108 22.5313C42.507 22.5313 41.216 21.2429 41.216 19.6454C41.216 18.0479 42.507 16.7595 44.108 16.7595Z" fill="#0041CE"/>
<path d="M252 38.958C252 39.2123 251.987 39.4601 251.962 39.7016C251.949 39.9304 251.93 40.1338 251.904 40.3117L245.155 40.7502C245.181 41.6145 245.422 42.2501 245.88 42.6568C246.337 43.0635 247.081 43.2669 248.11 43.2669C248.415 43.2669 248.727 43.2478 249.045 43.2097C249.375 43.1716 249.686 43.1207 249.979 43.0572C250.284 42.9809 250.563 42.9046 250.818 42.8284C251.072 42.7394 251.288 42.6504 251.466 42.5615V44.5062C251.161 44.6841 250.665 44.843 249.979 44.9828C249.292 45.1226 248.53 45.1925 247.691 45.1925C246.903 45.1925 246.204 45.1099 245.594 44.9447C244.984 44.7794 244.469 44.4935 244.049 44.0867C243.63 43.68 243.306 43.1334 243.077 42.4471C242.861 41.7607 242.753 40.8964 242.753 39.8541C242.753 38.8119 242.861 37.9476 243.077 37.2612C243.306 36.5748 243.63 36.0283 244.049 35.6216C244.469 35.2148 244.984 34.9288 245.594 34.7636C246.204 34.5984 246.903 34.5157 247.691 34.5157C248.581 34.5157 249.305 34.6365 249.864 34.878C250.424 35.1068 250.862 35.4245 251.18 35.8313C251.498 36.238 251.714 36.7083 251.828 37.2421C251.943 37.776 252 38.3479 252 38.958ZM249.788 38.7102C249.788 38.3924 249.763 38.0937 249.712 37.8141C249.674 37.5218 249.578 37.2676 249.426 37.0515C249.273 36.8354 249.057 36.6638 248.778 36.5367C248.511 36.4096 248.149 36.3461 247.691 36.3461C247.208 36.3461 246.808 36.4032 246.49 36.5176C246.172 36.632 245.918 36.8036 245.727 37.0324C245.537 37.2612 245.397 37.5472 245.308 37.8904C245.219 38.2208 245.168 38.6085 245.155 39.0534L249.788 38.7102Z" fill="#0041CE"/>
<path d="M236.722 45.1163C236.15 45.1163 235.578 45.0845 235.006 45.0209C234.434 44.9701 233.944 44.8938 233.538 44.7921V42.7902C233.982 42.9301 234.485 43.0445 235.044 43.1334C235.616 43.2097 236.137 43.2478 236.607 43.2478C237.268 43.2478 237.757 43.1652 238.075 43C238.393 42.8347 238.552 42.5106 238.552 42.0276C238.552 41.7861 238.52 41.5891 238.457 41.4366C238.406 41.2713 238.304 41.1315 238.151 41.0171C237.999 40.9027 237.783 40.8011 237.503 40.7121C237.236 40.6231 236.887 40.5278 236.455 40.4261C235.895 40.299 235.438 40.1528 235.082 39.9876C234.726 39.8224 234.44 39.6317 234.224 39.4156C234.021 39.1868 233.874 38.9199 233.785 38.6149C233.709 38.2971 233.671 37.9221 233.671 37.49C233.671 36.5621 233.982 35.8376 234.605 35.3165C235.228 34.7827 236.239 34.5157 237.637 34.5157C238.183 34.5157 238.711 34.5475 239.219 34.6111C239.74 34.6746 240.128 34.7572 240.382 34.8589L240.268 36.7274C239.988 36.6257 239.607 36.5367 239.124 36.4604C238.654 36.3842 238.183 36.3461 237.713 36.3461C237.052 36.3461 236.582 36.4287 236.302 36.5939C236.035 36.7464 235.902 37.0388 235.902 37.4709C235.902 37.6743 235.927 37.8395 235.978 37.9666C236.029 38.0937 236.124 38.2018 236.264 38.2907C236.404 38.3797 236.594 38.4623 236.836 38.5386C237.09 38.6149 237.421 38.7038 237.827 38.8055C238.399 38.9453 238.876 39.0979 239.257 39.2631C239.639 39.4283 239.944 39.6317 240.172 39.8732C240.401 40.102 240.56 40.388 240.649 40.7312C240.751 41.0616 240.802 41.4684 240.802 41.9514C240.802 43.108 240.446 43.9278 239.734 44.4108C239.022 44.8811 238.018 45.1163 236.722 45.1163Z" fill="#0041CE"/>
<path d="M226.518 34.5157C227.356 34.5157 228.062 34.592 228.634 34.7445C229.206 34.8971 229.663 35.1131 230.007 35.3928C230.362 35.6724 230.61 36.0219 230.75 36.4414C230.903 36.8481 230.979 37.3057 230.979 37.8141V45.0019H228.863L228.615 43.6863C228.361 44.1312 227.928 44.4934 227.318 44.7731C226.721 45.0527 226.009 45.1925 225.183 45.1925C222.831 45.1925 221.656 44.1566 221.656 42.0848C221.656 40.8773 222.018 40.0321 222.743 39.5491C223.467 39.0534 224.497 38.8055 225.831 38.8055H228.596V38.3479C228.596 38.0429 228.564 37.776 228.5 37.5472C228.437 37.3184 228.316 37.1277 228.138 36.9752C227.973 36.8227 227.738 36.7083 227.433 36.632C227.128 36.5558 226.74 36.5176 226.27 36.5176C225.901 36.5176 225.532 36.5367 225.164 36.5748C224.795 36.613 224.427 36.6638 224.058 36.7274V34.6873C224.452 34.6238 224.865 34.5793 225.297 34.5539C225.742 34.5285 226.149 34.5157 226.518 34.5157ZM225.698 43.3241C226.422 43.3241 227.032 43.1906 227.528 42.9237C228.024 42.6568 228.38 42.3009 228.596 41.856V40.5024H226.155C225.405 40.5024 224.859 40.6041 224.516 40.8074C224.185 40.9981 224.02 41.3985 224.02 42.0086C224.02 42.4534 224.147 42.7839 224.401 43C224.668 43.216 225.1 43.3241 225.698 43.3241Z" fill="#0041CE"/>
<path d="M215.676 34.5157C216.515 34.5157 217.201 34.6428 217.735 34.897C218.282 35.1512 218.707 35.5135 219.013 35.9838C219.33 36.4413 219.546 37.0006 219.661 37.6615C219.775 38.3225 219.832 39.0533 219.832 39.8541C219.832 40.5786 219.775 41.2649 219.661 41.9132C219.546 42.5614 219.33 43.1334 219.013 43.6291C218.707 44.1121 218.282 44.4934 217.735 44.773C217.201 45.0527 216.515 45.1925 215.676 45.1925C214.697 45.1925 213.966 45.0336 213.483 44.7158C213 44.3981 212.657 43.9723 212.454 43.4384L212.263 45.0018H210.109V30.5119H212.492V36.1553C212.708 35.6978 213.058 35.3101 213.541 34.9923C214.024 34.6746 214.735 34.5157 215.676 34.5157ZM215.028 43.3431C215.549 43.3431 215.962 43.2478 216.267 43.0571C216.585 42.8665 216.82 42.6122 216.973 42.2945C217.138 41.9767 217.246 41.6081 217.297 41.1887C217.347 40.7565 217.373 40.3117 217.373 39.8541C217.373 39.3584 217.347 38.9008 217.297 38.4814C217.246 38.0492 217.138 37.6742 216.973 37.3565C216.807 37.0387 216.566 36.7909 216.248 36.6129C215.943 36.435 215.536 36.346 215.028 36.346C214.507 36.346 214.075 36.4286 213.731 36.5939C213.388 36.7464 213.115 36.9752 212.912 37.2802C212.708 37.5726 212.562 37.9412 212.473 38.386C212.397 38.8182 212.359 39.3075 212.359 39.8541C212.359 40.3879 212.397 40.8709 212.473 41.3031C212.562 41.7225 212.708 42.0848 212.912 42.3898C213.115 42.6949 213.388 42.93 213.731 43.0952C214.075 43.2605 214.507 43.3431 215.028 43.3431Z" fill="#0041CE"/>
<path d="M202.592 34.5157C203.431 34.5157 204.137 34.592 204.709 34.7445C205.28 34.8971 205.738 35.1131 206.081 35.3928C206.437 35.6724 206.685 36.0219 206.825 36.4414C206.977 36.8481 207.054 37.3057 207.054 37.8141V45.0019H204.937L204.689 43.6863C204.435 44.1312 204.003 44.4934 203.393 44.7731C202.796 45.0527 202.084 45.1925 201.258 45.1925C198.906 45.1925 197.73 44.1566 197.73 42.0848C197.73 40.8773 198.093 40.0321 198.817 39.5491C199.542 39.0534 200.571 38.8055 201.906 38.8055H204.67V38.3479C204.67 38.0429 204.639 37.776 204.575 37.5472C204.511 37.3184 204.391 37.1277 204.213 36.9752C204.048 36.8227 203.812 36.7083 203.507 36.632C203.202 36.5558 202.815 36.5176 202.344 36.5176C201.976 36.5176 201.607 36.5367 201.239 36.5748C200.87 36.613 200.501 36.6638 200.133 36.7274V34.6873C200.527 34.6238 200.94 34.5793 201.372 34.5539C201.817 34.5285 202.224 34.5157 202.592 34.5157ZM201.772 43.3241C202.497 43.3241 203.107 43.1906 203.603 42.9237C204.098 42.6568 204.454 42.3009 204.67 41.856V40.5024H202.23C201.48 40.5024 200.934 40.6041 200.59 40.8074C200.26 40.9981 200.095 41.3985 200.095 42.0086C200.095 42.4534 200.222 42.7839 200.476 43C200.743 43.216 201.175 43.3241 201.772 43.3241Z" fill="#0041CE"/>
<path d="M194.231 36.6128V41.5699C194.231 41.9004 194.243 42.1737 194.269 42.3897C194.307 42.6058 194.37 42.7774 194.459 42.9045C194.561 43.0316 194.695 43.1206 194.86 43.1714C195.025 43.2096 195.241 43.2286 195.508 43.2286C195.686 43.2286 195.851 43.2223 196.004 43.2096C196.156 43.1969 196.302 43.1714 196.442 43.1333V45.0208C196.239 45.0462 196.029 45.0653 195.813 45.078C195.597 45.1034 195.381 45.1161 195.165 45.1161C194.555 45.1161 194.034 45.0716 193.601 44.9827C193.182 44.881 192.839 44.7094 192.572 44.4679C192.318 44.2137 192.133 43.8705 192.019 43.4384C191.905 42.9935 191.847 42.4342 191.847 41.7606V36.6128H190.417V34.7063H191.847V32.2659H194.231V34.7063H196.499V36.6128H194.231Z" fill="#0041CE"/>
<path d="M184.16 34.5157C184.999 34.5157 185.704 34.592 186.276 34.7445C186.848 34.8971 187.306 35.1131 187.649 35.3928C188.005 35.6724 188.253 36.0219 188.393 36.4414C188.545 36.8481 188.621 37.3057 188.621 37.8141V45.0019H186.505L186.257 43.6863C186.003 44.1312 185.571 44.4934 184.961 44.7731C184.363 45.0527 183.652 45.1925 182.825 45.1925C180.474 45.1925 179.298 44.1566 179.298 42.0848C179.298 40.8773 179.661 40.0321 180.385 39.5491C181.11 39.0534 182.139 38.8055 183.474 38.8055H186.238V38.3479C186.238 38.0429 186.206 37.776 186.143 37.5472C186.079 37.3184 185.959 37.1277 185.781 36.9752C185.615 36.8227 185.38 36.7083 185.075 36.632C184.77 36.5558 184.383 36.5176 183.912 36.5176C183.544 36.5176 183.175 36.5367 182.806 36.5748C182.438 36.613 182.069 36.6638 181.701 36.7274V34.6873C182.095 34.6238 182.508 34.5793 182.94 34.5539C183.385 34.5285 183.791 34.5157 184.16 34.5157ZM183.34 43.3241C184.065 43.3241 184.675 43.1906 185.171 42.9237C185.666 42.6568 186.022 42.3009 186.238 41.856V40.5024H183.798C183.048 40.5024 182.501 40.6041 182.158 40.8074C181.828 40.9981 181.662 41.3985 181.662 42.0086C181.662 42.4534 181.79 42.7839 182.044 43C182.311 43.216 182.743 43.3241 183.34 43.3241Z" fill="#0041CE"/>
<path d="M171.241 31.7703C172.207 31.7703 173.084 31.8592 173.873 32.0372C174.661 32.2024 175.334 32.5265 175.893 33.0095C176.453 33.4925 176.885 34.1662 177.19 35.0305C177.508 35.8948 177.667 37.0133 177.667 38.3861C177.667 39.6698 177.508 40.7375 177.19 41.5891C176.885 42.428 176.453 43.1016 175.893 43.61C175.334 44.1185 174.661 44.4807 173.873 44.6968C173.084 44.9002 172.207 45.0018 171.241 45.0018H166.952V31.7703H171.241ZM171.127 42.8474C171.763 42.8474 172.328 42.7775 172.824 42.6377C173.32 42.4979 173.733 42.2627 174.063 41.9323C174.406 41.5891 174.661 41.1315 174.826 40.5595C175.004 39.9876 175.093 39.2631 175.093 38.3861C175.093 37.4709 175.004 36.721 174.826 36.1363C174.648 35.5516 174.387 35.094 174.044 34.7636C173.701 34.4204 173.281 34.1916 172.786 34.0772C172.303 33.9501 171.75 33.8866 171.127 33.8866H169.449V42.8474H171.127Z" fill="#0041CE"/>
<path d="M155.414 45.1163C154.842 45.1163 154.27 45.0845 153.698 45.0209C153.126 44.9701 152.637 44.8938 152.23 44.7921V42.7902C152.675 42.9301 153.177 43.0445 153.736 43.1334C154.308 43.2097 154.829 43.2478 155.3 43.2478C155.961 43.2478 156.45 43.1652 156.768 43C157.085 42.8347 157.244 42.5106 157.244 42.0276C157.244 41.7861 157.212 41.5891 157.149 41.4366C157.098 41.2713 156.996 41.1315 156.844 41.0171C156.691 40.9027 156.475 40.8011 156.196 40.7121C155.929 40.6231 155.579 40.5278 155.147 40.4261C154.588 40.299 154.13 40.1528 153.774 39.9876C153.418 39.8224 153.132 39.6317 152.916 39.4156C152.713 39.1868 152.567 38.9199 152.478 38.6149C152.402 38.2971 152.363 37.9221 152.363 37.49C152.363 36.5621 152.675 35.8376 153.298 35.3165C153.92 34.7827 154.931 34.5157 156.329 34.5157C156.876 34.5157 157.403 34.5475 157.912 34.6111C158.433 34.6746 158.82 34.7572 159.075 34.8589L158.96 36.7274C158.681 36.6257 158.299 36.5367 157.816 36.4604C157.346 36.3842 156.876 36.3461 156.405 36.3461C155.744 36.3461 155.274 36.4287 154.995 36.5939C154.728 36.7464 154.594 37.0388 154.594 37.4709C154.594 37.6743 154.62 37.8395 154.67 37.9666C154.721 38.0937 154.817 38.2018 154.956 38.2907C155.096 38.3797 155.287 38.4623 155.528 38.5386C155.783 38.6149 156.113 38.7038 156.52 38.8055C157.092 38.9453 157.568 39.0979 157.95 39.2631C158.331 39.4283 158.636 39.6317 158.865 39.8732C159.094 40.102 159.253 40.388 159.341 40.7312C159.443 41.0616 159.494 41.4684 159.494 41.9514C159.494 43.108 159.138 43.9278 158.426 44.4108C157.715 44.8811 156.71 45.1163 155.414 45.1163Z" fill="#0041CE"/>
<path d="M150.304 38.958C150.304 39.2123 150.291 39.4601 150.266 39.7016C150.253 39.9304 150.234 40.1338 150.209 40.3117L143.459 40.7502C143.485 41.6145 143.726 42.2501 144.184 42.6568C144.641 43.0635 145.385 43.2669 146.415 43.2669C146.72 43.2669 147.031 43.2478 147.349 43.2097C147.679 43.1716 147.991 43.1207 148.283 43.0572C148.588 42.9809 148.868 42.9046 149.122 42.8284C149.376 42.7394 149.592 42.6504 149.77 42.5615V44.5062C149.465 44.6841 148.969 44.843 148.283 44.9828C147.597 45.1226 146.834 45.1925 145.995 45.1925C145.207 45.1925 144.508 45.1099 143.898 44.9447C143.288 44.7794 142.773 44.4935 142.354 44.0867C141.934 43.68 141.61 43.1334 141.381 42.4471C141.165 41.7607 141.057 40.8964 141.057 39.8541C141.057 38.8119 141.165 37.9476 141.381 37.2612C141.61 36.5748 141.934 36.0283 142.354 35.6216C142.773 35.2148 143.288 34.9288 143.898 34.7636C144.508 34.5984 145.207 34.5157 145.995 34.5157C146.885 34.5157 147.609 34.6365 148.169 34.878C148.728 35.1068 149.166 35.4245 149.484 35.8313C149.802 36.238 150.018 36.7083 150.132 37.2421C150.247 37.776 150.304 38.3479 150.304 38.958ZM148.092 38.7102C148.092 38.3924 148.067 38.0937 148.016 37.8141C147.978 37.5218 147.883 37.2676 147.73 37.0515C147.578 36.8354 147.362 36.6638 147.082 36.5367C146.815 36.4096 146.453 36.3461 145.995 36.3461C145.512 36.3461 145.112 36.4032 144.794 36.5176C144.476 36.632 144.222 36.8036 144.031 37.0324C143.841 37.2612 143.701 37.5472 143.612 37.8904C143.523 38.2208 143.472 38.6085 143.459 39.0534L148.092 38.7102Z" fill="#0041CE"/>
<path d="M137.429 33.1239C137.162 33.1239 136.94 33.1112 136.762 33.0858C136.597 33.0604 136.457 33.0032 136.343 32.9142C136.241 32.8125 136.171 32.679 136.133 32.5138C136.095 32.3486 136.076 32.1198 136.076 31.8274C136.076 31.5351 136.095 31.3063 136.133 31.1411C136.171 30.9631 136.241 30.836 136.343 30.7598C136.457 30.6708 136.597 30.6136 136.762 30.5882C136.94 30.5628 137.162 30.55 137.429 30.55C137.696 30.55 137.912 30.5628 138.078 30.5882C138.256 30.6136 138.395 30.6708 138.497 30.7598C138.611 30.836 138.688 30.9631 138.726 31.1411C138.764 31.3063 138.783 31.5351 138.783 31.8274C138.783 32.1198 138.764 32.3486 138.726 32.5138C138.688 32.679 138.611 32.8125 138.497 32.9142C138.395 33.0032 138.256 33.0604 138.078 33.0858C137.912 33.1112 137.696 33.1239 137.429 33.1239ZM136.228 34.7064H138.611V45.0018H136.228V34.7064Z" fill="#0041CE"/>
<path d="M134.445 34.5157L134.368 36.6511H134.121C133.79 36.6511 133.466 36.6829 133.148 36.7464C132.843 36.81 132.557 36.9307 132.29 37.1087C132.023 37.2739 131.788 37.5027 131.585 37.795C131.382 38.0747 131.235 38.4369 131.146 38.8818V45.0019H128.763V34.7064H131.146V36.5558C131.299 36.1363 131.49 35.7931 131.718 35.5262C131.947 35.2593 132.195 35.0496 132.462 34.8971C132.742 34.7445 133.028 34.6429 133.32 34.592C133.625 34.5412 133.93 34.5157 134.235 34.5157H134.445Z" fill="#0041CE"/>
<path d="M126.341 38.958C126.341 39.2123 126.328 39.4601 126.303 39.7016C126.29 39.9304 126.271 40.1338 126.246 40.3117L119.497 40.7502C119.522 41.6145 119.763 42.2501 120.221 42.6568C120.679 43.0635 121.422 43.2669 122.452 43.2669C122.757 43.2669 123.068 43.2478 123.386 43.2097C123.716 43.1716 124.028 43.1207 124.32 43.0572C124.625 42.9809 124.905 42.9046 125.159 42.8284C125.413 42.7394 125.629 42.6504 125.807 42.5615V44.5062C125.502 44.6841 125.006 44.843 124.32 44.9828C123.634 45.1226 122.871 45.1925 122.032 45.1925C121.244 45.1925 120.545 45.1099 119.935 44.9447C119.325 44.7794 118.81 44.4935 118.391 44.0867C117.971 43.68 117.647 43.1334 117.418 42.4471C117.202 41.7607 117.094 40.8964 117.094 39.8541C117.094 38.8119 117.202 37.9476 117.418 37.2612C117.647 36.5748 117.971 36.0283 118.391 35.6216C118.81 35.2148 119.325 34.9288 119.935 34.7636C120.545 34.5984 121.244 34.5157 122.032 34.5157C122.922 34.5157 123.646 34.6365 124.206 34.878C124.765 35.1068 125.204 35.4245 125.521 35.8313C125.839 36.238 126.055 36.7083 126.169 37.2421C126.284 37.776 126.341 38.3479 126.341 38.958ZM124.129 38.7102C124.129 38.3924 124.104 38.0937 124.053 37.8141C124.015 37.5218 123.92 37.2676 123.767 37.0515C123.615 36.8354 123.399 36.6638 123.119 36.5367C122.852 36.4096 122.49 36.3461 122.032 36.3461C121.549 36.3461 121.149 36.4032 120.831 36.5176C120.513 36.632 120.259 36.8036 120.068 37.0324C119.878 37.2612 119.738 37.5472 119.649 37.8904C119.56 38.2208 119.509 38.6085 119.497 39.0534L124.129 38.7102Z" fill="#0041CE"/>
<path d="M110.132 45.1924C109.738 45.1924 109.35 45.1797 108.969 45.1543C108.587 45.1289 108.225 45.0908 107.882 45.0399C107.539 44.9891 107.227 44.9382 106.948 44.8874C106.668 44.8365 106.433 44.7794 106.242 44.7158V42.4851C106.446 42.5614 106.693 42.6313 106.986 42.6948C107.278 42.7584 107.589 42.8156 107.92 42.8664C108.263 42.9173 108.613 42.9618 108.969 42.9999C109.337 43.0253 109.699 43.038 110.055 43.038C110.97 43.038 111.625 42.9109 112.019 42.6567C112.413 42.3898 112.61 41.9195 112.61 41.2458C112.61 40.9408 112.572 40.6866 112.496 40.4832C112.432 40.2671 112.305 40.0828 112.114 39.9303C111.924 39.7651 111.657 39.6253 111.314 39.5109C110.983 39.3838 110.545 39.2503 109.998 39.1105C109.299 38.9453 108.714 38.7673 108.244 38.5767C107.787 38.386 107.412 38.1509 107.119 37.8712C106.84 37.5789 106.636 37.2357 106.509 36.8417C106.395 36.4349 106.338 35.9392 106.338 35.3546C106.338 34.0072 106.732 33.0413 107.52 32.4566C108.32 31.8592 109.49 31.5605 111.028 31.5605C111.739 31.5605 112.394 31.6113 112.991 31.713C113.589 31.802 114.059 31.91 114.402 32.0371V34.1534C114.224 34.0899 114.008 34.0327 113.754 33.9818C113.5 33.9183 113.22 33.8611 112.915 33.8102C112.623 33.7594 112.318 33.7213 112 33.6958C111.682 33.6704 111.384 33.6577 111.104 33.6577C110.303 33.6577 109.712 33.7657 109.331 33.9818C108.962 34.1979 108.778 34.6364 108.778 35.2974C108.778 35.5516 108.803 35.7676 108.854 35.9456C108.905 36.1108 109.013 36.2634 109.178 36.4032C109.356 36.5303 109.604 36.651 109.922 36.7654C110.24 36.8798 110.659 37.0006 111.18 37.1277C111.956 37.3183 112.591 37.5217 113.087 37.7378C113.595 37.9538 113.996 38.2208 114.288 38.5385C114.58 38.8563 114.784 39.2376 114.898 39.6825C115.025 40.1273 115.089 40.6612 115.089 41.284C115.089 42.5804 114.695 43.5591 113.907 44.2201C113.119 44.8683 111.86 45.1924 110.132 45.1924Z" fill="#0041CE"/>
<path d="M98.0928 38.1763H103.87V40.121H98.0928V38.1763Z" fill="#0041CE"/>
<path d="M95.8811 38.958C95.8811 39.2123 95.8684 39.4601 95.843 39.7016C95.8303 39.9304 95.8112 40.1338 95.7858 40.3117L89.0366 40.7502C89.062 41.6145 89.3035 42.2501 89.761 42.6568C90.2186 43.0635 90.9622 43.2669 91.9917 43.2669C92.2968 43.2669 92.6082 43.2478 92.926 43.2097C93.2564 43.1716 93.5678 43.1207 93.8602 43.0572C94.1652 42.9809 94.4448 42.9046 94.6991 42.8284C94.9533 42.7394 95.1693 42.6504 95.3473 42.5615V44.5062C95.0422 44.6841 94.5465 44.843 93.8602 44.9828C93.1738 45.1226 92.4112 45.1925 91.5723 45.1925C90.7842 45.1925 90.0852 45.1099 89.4751 44.9447C88.865 44.7794 88.3502 44.4935 87.9307 44.0867C87.5113 43.68 87.1872 43.1334 86.9584 42.4471C86.7423 41.7607 86.6343 40.8964 86.6343 39.8541C86.6343 38.8119 86.7423 37.9476 86.9584 37.2612C87.1872 36.5748 87.5113 36.0283 87.9307 35.6216C88.3502 35.2148 88.865 34.9288 89.4751 34.7636C90.0852 34.5984 90.7842 34.5157 91.5723 34.5157C92.462 34.5157 93.1865 34.6365 93.7458 34.878C94.305 35.1068 94.7435 35.4245 95.0613 35.8313C95.3791 36.238 95.5951 36.7083 95.7095 37.2421C95.8239 37.776 95.8811 38.3479 95.8811 38.958ZM93.6695 38.7102C93.6695 38.3924 93.6441 38.0937 93.5932 37.8141C93.5551 37.5218 93.4598 37.2676 93.3073 37.0515C93.1547 36.8354 92.9387 36.6638 92.659 36.5367C92.3921 36.4096 92.0299 36.3461 91.5723 36.3461C91.0893 36.3461 90.6889 36.4032 90.3712 36.5176C90.0534 36.632 89.7992 36.8036 89.6085 37.0324C89.4179 37.2612 89.2781 37.5472 89.1891 37.8904C89.1001 38.2208 89.0493 38.6085 89.0366 39.0534L93.6695 38.7102Z" fill="#0041CE"/>
<path d="M80.8281 34.5157C82.0102 34.5157 82.8745 34.8144 83.4211 35.4118C83.9676 35.9965 84.2409 36.8862 84.2409 38.081V45.0019H81.8577V38.6149C81.8577 37.8904 81.7369 37.3565 81.4954 37.0133C81.2539 36.6702 80.8091 36.4986 80.1608 36.4986C79.5889 36.4986 79.1122 36.613 78.7309 36.8418C78.3623 37.0705 78.1017 37.49 77.9492 38.1001V45.0019H75.566V38.6149C75.566 37.8904 75.4452 37.3565 75.2037 37.0133C74.975 36.6702 74.5428 36.4986 73.9073 36.4986C73.3353 36.4986 72.8714 36.6066 72.5155 36.8227C72.1596 37.0388 71.899 37.4455 71.7338 38.0429V45.0019H69.3506V34.7064H71.7338V35.9266C72.0261 35.4182 72.4138 35.0559 72.8968 34.8399C73.3798 34.6238 73.9645 34.5157 74.6508 34.5157C75.4516 34.5157 76.0871 34.6492 76.5574 34.9161C77.0277 35.1703 77.3772 35.5453 77.606 36.041C77.8984 35.4817 78.3305 35.0877 78.9025 34.8589C79.4745 34.6301 80.1163 34.5157 80.8281 34.5157Z" fill="#0041CE"/>
<path d="M65.1691 33.1239C64.9022 33.1239 64.6797 33.1112 64.5018 33.0858C64.3366 33.0604 64.1967 33.0032 64.0823 32.9142C63.9807 32.8125 63.9108 32.679 63.8726 32.5138C63.8345 32.3486 63.8154 32.1198 63.8154 31.8274C63.8154 31.5351 63.8345 31.3063 63.8726 31.1411C63.9108 30.9631 63.9807 30.836 64.0823 30.7598C64.1967 30.6708 64.3366 30.6136 64.5018 30.5882C64.6797 30.5628 64.9022 30.55 65.1691 30.55C65.436 30.55 65.6521 30.5628 65.8173 30.5882C65.9953 30.6136 66.1351 30.6708 66.2368 30.7598C66.3512 30.836 66.4274 30.9631 66.4656 31.1411C66.5037 31.3063 66.5228 31.5351 66.5228 31.8274C66.5228 32.1198 66.5037 32.3486 66.4656 32.5138C66.4274 32.679 66.3512 32.8125 66.2368 32.9142C66.1351 33.0032 65.9953 33.0604 65.8173 33.0858C65.6521 33.1112 65.436 33.1239 65.1691 33.1239ZM63.968 34.7064H66.3512V45.0018H63.968V34.7064Z" fill="#0041CE"/>
<path d="M62.5486 33.9628H58.9452V45.0018H56.4476V33.9628H52.8633V31.7703H62.5486V33.9628Z" fill="#0041CE"/>
</svg>
