/* XPM */
static char * icon_test_active_suite_inactive_xpm[] = {
"32 32 40 1",
" 	c None",
".	c #000000",
"+	c #4B82A8",
"@	c #74A1BD",
"#	c #6B97B6",
"$	c #5896BE",
"%	c #538BB1",
"&	c #4388B4",
"*	c #4381AA",
"=	c #D7E0E9",
"-	c #7FA6C0",
";	c #D1E5F5",
">	c #CAE1F3",
",	c #C3DDF1",
"'	c #BCD9EF",
")	c #AFD1EC",
"!	c #A5CCEA",
"~	c #97C4E7",
"{	c #85BBE2",
"]	c #71B2DE",
"^	c #71A8D1",
"/	c #4B8EBF",
"(	c #E6EAF1",
"_	c #DAEAF7",
":	c #619BC4",
"<	c #F1F4F7",
"[	c #76BAE2",
"}	c #63B3DE",
"|	c #54A6D8",
"1	c #E9F3FA",
"2	c #87ABC3",
"3	c #FAFCFE",
"4	c #EFF6FC",
"5	c #8FB0C3",
"6	c #F4F9FD",
"7	c #F7FBFD",
"8	c #B6D5EE",
"9	c #7AC4E5",
"0	c #FDFDFE",
"a	c #FFFFFF",
"                                ",
"                                ",
"                                ",
"                                ",
"     .                     .    ",
"    ... +@@@##$$%%&*=     ...   ",
"     ...-;>,')!~~{]^/(   ...    ",
"      ..._;>,')!~~{^~:< ...     ",
"       ..._;>,')!~~^>~:...      ",
"        ...[[}}}}|}^1>...       ",
"        2..._;>,')!^3...2       ",
"        24..._;>,')^...^*       ",
"        244...[}}}}...~{%       ",
"        5644..._;>...!~~%       ",
"        57644..._...'8!~$       ",
"        577999.....}}}8!$       ",
"        5377644..._;>,'8#       ",
"        533776....._;>,'#       ",
"        50399...9...[}>,@       ",
"        5003...644..._;>@       ",
"        5a0...77644..._;@       ",
"        5a...9999999..._-       ",
"        5...003377644...-       ",
"        ...aa003377644...       ",
"       ...aaaa003377644...      ",
"      ...aaaaaa003377644...     ",
"     ...55555555555555225...    ",
"    ...                   ...   ",
"     .                     .    ",
"                                ",
"                                ",
"                                "};
