/* XPM */
static char * icon_suite_inactive_open_xpm[] = {
"32 32 4 1",
" 	c None",
".	c #000000",
"+	c #8DA0B9",
"@	c #800000",
"                                ",
"                                ",
"                                ",
"                                ",
"                                ",
"                                ",
"                                ",
"     .......                    ",
"     .+++++..                   ",
"     .++++++..                  ",
"     .+++++++............       ",
"     .++++++++++++++++++.       ",
"     .++++++++++++++++++.       ",
"     .++....................    ",
"     .++.@@@@@@@@@@@@@@@@@@.    ",
"     .++.@@@@@@@@@@@@@@@@@@.    ",
"     .+..@@@@@@@@@@@@@@@@@..    ",
"     .+.@@@@@@@@@@@@@@@@@@.     ",
"     .+.@@@@@@@@@@@@@@@@@@.     ",
"     ...@@@@@@@@@@@@@@@@@..     ",
"     ..@@@@@@@@@@@@@@@@@@.      ",
"     ..@@@@@@@@@@@@@@@@@@.      ",
"     ..@@@@@@@@@@@@@@@@@..      ",
"     .@@@@@@@@@@@@@@@@@@.       ",
"     ....................       ",
"                                ",
"                                ",
"                                ",
"                                ",
"                                ",
"                                ",
"                                "};
