/* XPM */
static char * icon_test_inactive_suite_inactive_xpm[] = {
"32 32 13 1",
" 	c None",
".	c #000000",
"+	c #C00000",
"@	c #4B8EBF",
"#	c #97C4E7",
"$	c #619BC4",
"%	c #CAE1F3",
"&	c #76BAE2",
"*	c #63B3DE",
"=	c #54A6D8",
"-	c #E9F3FA",
";	c #87ABC3",
">	c #7AC4E5",
"                                ",
"                                ",
"                                ",
"     .                     .    ",
"    ...                   ...   ",
"     ................    ...    ",
"      ...++++++++++.@.  ...     ",
"       ...+++++++++.#$....      ",
"        ...++++++++.%#...       ",
"        ....&****=*.-...        ",
"        .+...++++++....#;       ",
"        .++...+++++......       ",
"        .++>...***...=++.       ",
"        .++++...+...++++.       ",
"        .+++++.....+++++.       ",
"        .++>>>>...****++.       ",
"        .+++++.....+++++.       ",
"        .++++...+...++++.       ",
"        .++>...>>>...*++.       ",
"        .++...+++++...++.       ",
"        .+...+++++++...+.       ",
"        ....>>>>>>>>>....       ",
"        ...+++++++++++...       ",
"       ...+++++++++++++...      ",
"      ...+++++++++++++++...     ",
"     ....+++++++++++++++....    ",
"    ... ................. ...   ",
"     .                     .    ",
"                                ",
"                                ",
"                                ",
"                                "};
