<svg id="图层_1" data-name="图层 1" xmlns="http://www.w3.org/2000/svg" viewBox="0 0 155.91 155.91"><defs><style>.cls-1,.cls-2{fill:none;stroke:#3e3a39;stroke-linecap:round;stroke-miterlimit:10;}.cls-1{stroke-width:7px;}.cls-2{stroke-width:5px;}</style></defs><title>云服务菜单</title><rect class="cls-1" x="6.07" y="7.94" width="143.77" height="140.03" rx="7.96"/><path class="cls-2" d="M62.61,81.92c-6.43-2.67-8-3.32-8-3.32l-.06-6S57,70.81,57.77,65c1.5.43,2-1.74,2.1-3.14s.88-5.59-1-5.22a37.15,37.15,0,0,0,.55-6.73c-.47-4.76-3.75-9.72-12-10.08-7,.36-11.62,5.34-12.08,10.09a37.52,37.52,0,0,0,.51,6.75c-1.84-.38-1,3.86-1,5.23s.59,3.61,2.1,3.18c.75,5.79,3.15,7.64,3.15,7.64l0,6.15s-1.53.49-8,3.17S22.8,89,22.8,95.14H72C72,89,68.91,84.53,62.61,81.92Z"/><line class="cls-1" x1="87.29" y1="44.59" x2="133.75" y2="45.59"/><line class="cls-1" x1="87.29" y1="68.6" x2="133.75" y2="69.6"/><line class="cls-1" x1="87.29" y1="92.11" x2="133.75" y2="93.11"/><line class="cls-1" x1="22.78" y1="116.11" x2="135.13" y2="117.11"/></svg>